<svg xmlns="http://www.w3.org/2000/svg" width="400" height="300" viewBox="0 0 400 300">
  <!-- Crown Icon (0, 0) - Academic Awards Header -->
  <g transform="translate(0, 0)">
    <path d="M50 20 L20 60 L40 40 L60 40 L80 60 Z M30 60 H70 V80 H30 Z" fill="#f1c40f" stroke="#e67e22" stroke-width="5"/>
  </g>
  <!-- Checkmark Icon (-100px 0) - Full Funding Scholarship -->
  <g transform="translate(100, 0)">
    <path d="M20 50 L40 70 L80 30" fill="none" stroke="#2ecc71" stroke-width="10" stroke-linecap="round"/>
    <circle cx="50" cy="50" r="40" fill="none" stroke="#2ecc71" stroke-width="5"/>
  </g>
  <!-- Letter B Icon (-200px 0) - Grade B -->
  <g transform="translate(200, 0)">
    <path d="M30 20 H50 Q70 20 70 40 Q70 50 60 55 Q70 60 70 70 Q70 80 50 80 H30 Z" fill="#3498db" stroke="#2980b9" stroke-width="5"/>
  </g>
  <!-- Shield Icon (0 -100px) - Notable Achievements Header -->
  <g transform="translate(0, 100)">
    <path d="M50 20 Q70 40 70 60 Q70 80 50 90 Q30 80 30 60 Q30 40 50 20 Z" fill="#9b59b6" stroke="#8e44ad" stroke-width="5"/>
  </g>
  <!-- Document Icon (-100px -100px) - Volunteer AMT -->
  <g transform="translate(100, 100)">
    <rect x="20" y="20" width="60" height="60" fill="#e74c3c" stroke="#c0392b" stroke-width="5"/>
    <path d="M35 35 H65 M35 50 H65 M35 65 H65" fill="none" stroke="#fff" stroke-width="3"/>
  </g>
  <!-- Whiteboard Icon (-200px -100px) - CTF Cambodia -->
  <g transform="translate(200, 100)">
    <rect x="20" y="20" width="60" height="60" fill="#34495e" stroke="#2c3e50" stroke-width="5"/>
    <path d="M30 30 Q50 50 70 30" fill="none" stroke="#ecf0f1" stroke-width="3"/>
  </g>
  <!-- Star Icon (0 -200px) - Web Development Award -->
  <g transform="translate(0, 200)">
    <path d="M50 20 L60 40 L80 45 L65 60 L70 80 L50 70 L30 80 L35 60 L20 45 L40 40 Z" fill="#f39c12" stroke="#e67e22" stroke-width="5"/>
  </g>
</svg>