<svg xmlns="http://www.w3.org/2000/svg" viewBox="0 0 250 50" width="250" height="50">
  <!-- Science Icon (microscope) -->
  <g transform="translate(0, 0)">
    <circle cx="25" cy="25" r="23" fill="#3498db" stroke="#2980b9" stroke-width="2"/>
    <path d="M15,32 L35,32 L35,35 L15,35 Z" fill="#2c3e50"/>
    <path d="M22,15 L28,15 L28,32 L22,32 Z" fill="#2c3e50"/>
    <circle cx="25" cy="15" r="5" fill="#2c3e50"/>
    <path d="M20,20 L25,32 L30,20 Z" fill="#2c3e50" opacity="0.7"/>
  </g>
  
  <!-- Gaming Icon (controller) -->
  <g transform="translate(50, 0)">
    <circle cx="25" cy="25" r="23" fill="#9b59b6" stroke="#8e44ad" stroke-width="2"/>
    <rect x="14" y="19" width="22" height="12" rx="6" fill="#2c3e50"/>
    <circle cx="17" cy="25" r="2" fill="#ecf0f1"/>
    <circle cx="23" cy="25" r="2" fill="#ecf0f1"/>
    <circle cx="33" cy="22" r="2" fill="#ecf0f1"/>
    <circle cx="33" cy="28" r="2" fill="#ecf0f1"/>
  </g>
  
  <!-- Music Icon (piano/note) -->
  <g transform="translate(100, 0)">
    <circle cx="25" cy="25" r="23" fill="#e74c3c" stroke="#c0392b" stroke-width="2"/>
    <path d="M16,15 Q25,10 34,15 L34,33 Q25,38 16,33 Z" fill="#2c3e50"/>
    <rect x="18" y="15" width="2" height="18" fill="#ecf0f1"/>
    <rect x="22" y="15" width="2" height="18" fill="#ecf0f1"/>
    <rect x="26" y="15" width="2" height="18" fill="#ecf0f1"/>
    <rect x="30" y="15" width="2" height="18" fill="#ecf0f1"/>
  </g>
  
  <!-- Book Icon -->
  <g transform="translate(150, 0)">
    <circle cx="25" cy="25" r="23" fill="#f1c40f" stroke="#f39c12" stroke-width="2"/>
    <path d="M17,15 L33,15 L33,35 L17,35 C15,35 13,33 13,31 L13,19 C13,17 15,15 17,15 Z" fill="#2c3e50"/>
    <path d="M17,15 L17,35 C19,35 19,33 19,31 L19,19 C19,17 19,15 17,15 Z" fill="#34495e"/>
    <rect x="21" y="18" width="10" height="1" fill="#ecf0f1"/>
    <rect x="21" y="21" width="8" height="1" fill="#ecf0f1"/>
    <rect x="21" y="24" width="10" height="1" fill="#ecf0f1"/>
    <rect x="21" y="27" width="7" height="1" fill="#ecf0f1"/>
    <rect x="21" y="30" width="9" height="1" fill="#ecf0f1"/>
  </g>
  
  <!-- Camera Icon -->
  <g transform="translate(200, 0)">
    <circle cx="25" cy="25" r="23" fill="#2ecc71" stroke="#27ae60" stroke-width="2"/>
    <rect x="13" y="17" width="24" height="16" rx="2" fill="#2c3e50"/>
    <rect x="20" y="15" width="10" height="4" fill="#2c3e50"/>
    <circle cx="25" cy="25" r="6" fill="#34495e"/>
    <circle cx="25" cy="25" r="4" fill="#2c3e50"/>
    <circle cx="32" cy="20" r="1.5" fill="#e74c3c"/>
  </g>
</svg>
