<svg xmlns="http://www.w3.org/2000/svg" viewBox="0 0 240 80">
  <!-- Technical Skills Row -->
  <!-- Python Icon -->
  <g transform="translate(0, 0)">
    <circle cx="20" cy="20" r="19" fill="#366994" />
    <path d="M20 8c-6.4 0-6 2.8-6 2.8v2.8h6v.8h-7S10 14.8 10 20c0 6.4 2.5 6.2 2.5 6.2h1.5v-3c0 0-.1-3 2.9-3h5c0 0 2.9.1 2.9-2.8v-4.7c0-.1.2-2.9-3.5-2.9zm-3.4 1.6c.6 0 1.1.5 1.1 1.1 0 .6-.5 1.1-1.1 1.1-.6 0-1.1-.5-1.1-1.1 0-.6.5-1.1 1.1-1.1z" fill="#ffffff"/>
    <path d="M20 32c6.4 0 6-2.8 6-2.8v-2.8h-6v-.8h8.5s2.9.4 2.9-6c0-6.4-2.5-6.2-2.5-6.2h-1.5v3c0 0 .1 3-2.9 3h-5c0 0-2.9-.1-2.9 2.8v4.7c0 .1-.2 2.9 3.5 2.9m3.4-1.6c-.6 0-1.1-.5-1.1-1.1 0-.6.5-1.1 1.1-1.1.6 0 1.1.5 1.1 1.1 0 .6-.5 1.1-1.1 1.1z" fill="#ffffff"/>
  </g>
  
  <!-- Java Icon -->
  <g transform="translate(40, 0)">
    <circle cx="20" cy="20" r="19" fill="#e76f00" />
    <path d="M16.8 29.4s-1.3.8.9 1c2.5.4 3.9.3 6.8-.3 0 0 .8.5 1.8.9-6.4 2.8-14.4-.1-9.5-1.6" fill="#ffffff"/>
    <path d="M16 25.8s-1.4 1 .8 1.3c2.8.3 5 .3 8.8-.4 0 0 .5.5 1.3.8-7.4 2.1-15.5.1-10.9-1.7" fill="#ffffff"/>
    <path d="M21.6 19.1c1.6 1.9-.4 3.5-.4 3.5s4-2.1 2.1-4.6c-1.8-2.4-3-3.5 4.1-7.5 0 0-11.1 2.8-5.8 8.6" fill="#ffffff"/>
    <path d="M28.8 30.8s.9.8-1 1.4c-3.5 1.1-14.8 1.4-17.9 0-1.1-.5 1-1.3 1.6-1.4.8-.1 1.1-.1 1.1-.1-1.3-.9-8.1 1.8-3.5 2.5 12.5 2.1 22.9-.9 19.7-2.5" fill="#ffffff"/>
    <path d="M16.9 22.3s-5.8 1.4-2 1.9c1.5.2 4.6.1 7.5-.1 2.4-.2 4.6-.8 4.6-.8s-.9.4-1.4.8c-5.6 1.5-16.5.8-13.4-.8 2.6-1.3 4.7-1 4.7-1" fill="#ffffff"/>
    <path d="M25.6 26.8c5.8-3 3.1-5.9 1.3-5.5-.5.1-.6.2-.6.2s.1-.2.5-.3c3.5-1.3 6.1 3.8-1.1 5.9 0 0 .1-.1 0-.3" fill="#ffffff"/>
    <path d="M21 7.5s3.1 3.1-3 8c-5 3.9-1.3 6 0 8.5-3-2.8-5.4-5.1-3.8-7.5 2.3-3.4 8.6-5.1 6.8-9" fill="#ffffff"/>
    <path d="M17.4 33.5c5.5.4 14-.1 14.1-2.5 0 0-.4.9-4.5 1.6-4.8.8-10.5.6-14 .2 0 0 .8.6 4.4.7" fill="#ffffff"/>
  </g>
  
  <!-- HTML Icon -->
  <g transform="translate(80, 0)">
    <circle cx="20" cy="20" r="19" fill="#e34c26" />
    <path d="M10 10l1.3 13.1L20 26.3l8.7-3.1L30 10H10zm16 4.5h-5l.3 2.5h10.5l-.8 8.1-5 1.5-5-1.5-.4-3.8h2.5l.2 1.9 2.8.6 2.8-.6.3-3.1H13.8l-.6-7.5h14.3l-.4 1.9z" fill="#ffffff"/>
  </g>
  
  <!-- CSS Icon -->
  <g transform="translate(120, 0)">
    <circle cx="20" cy="20" r="19" fill="#264de4" />
    <path d="M10 10l1.3 13.1L20 26.3l8.7-3.1L30 10H10zm16 4.5h-5l.3 2.5h10.5l-.4 3.8h-6.8l.3 2.5h6.3l-.5 4.4-4.6 1.3-4.6-1.3-.3-3.1h2.5l.1 1.6 2.3.6 2.3-.6.3-2.9h-7.5L12 14.5h11.4l-.4 1.9z" fill="#ffffff"/>
  </g>
  
  <!-- JavaScript Icon -->
  <g transform="translate(160, 0)">
    <circle cx="20" cy="20" r="19" fill="#f7df1e" />
    <path d="M12 12h16v16H12V12zm14.5 13.4l-1.8.5c-.3.8-.6 1.5-1.4 1.5-.7 0-1.1-.4-1.1-1.9v-7.5h2.3v7.3c0 .5 0 .6.2.6.1 0 .3-.1.4-.3l1.4.8zm-5.3.5l-1.8.5c-.3-.6-.5-1.1-.9-1.5-1.1-1.1-2.3-.9-2.8-.6l1.1 1.3c.3-.2.7-.4 1.1 0 .2.2.3.6.2 1.1-.4 1.5-2.2 1.7-3.5 1.1l-1.1 1.4c.5.3 1.1.6 1.9.8 1.3.4 3 .2 4-1 .7-.9.8-2.1.6-3.2z" fill="#000000"/>
  </g>
  
  <!-- SQL Icon -->
  <g transform="translate(200, 0)">
    <circle cx="20" cy="20" r="19" fill="#00758f" />
    <path d="M12 12h16v16H12V12zm2 2v12h12V14H14zm3 3h6v2h-6v-2zm0 3h6v2h-6v-2zm0 3h6v2h-6v-2z" fill="#ffffff"/>
  </g>
  
  <!-- Soft Skills Row -->
  <!-- Communication Icon -->
  <g transform="translate(0, 40)">
    <circle cx="20" cy="20" r="19" fill="#3498db" />
    <path d="M10 15v10h3.8l3.7 3.8v-3.8h5V15H10zm1.3 1.3h10v7.5h-5v1.9l-2.5-2.5h-2.5v-6.9z M21.3 11.3v2.5h3.8v6.9h-2.5V22.5l-2.5-2.5v-2.5h3.8v-6.2H13.8V11.3h7.5z" fill="#ffffff"/>
  </g>
  
  <!-- Problem Solving Icon -->
  <g transform="translate(40, 40)">
    <circle cx="20" cy="20" r="19" fill="#9b59b6" />
    <path d="M20 8.8c-2.1 0-3.8 1.6-3.8 3.8 0 .5.1 1 .3 1.5l-5.8 3.5c-.7-.8-1.9-1.3-3-1.3-2.5 0-4.5 2-4.5 4.5s2 4.5 4.5 4.5c2.1 0 4-1.5 4.4-3.5l5.5-1.8c1 1.8 3 2.9 5.1 2.9 3.4 0 6-2.8 6-6s-2.6-6.1-6-6.1c-1.3 0-2.5.4-3.5 1.1l-2.4-2.1c.3-.4.4-.9.4-1.4 0-2.1-1.6-3.8-3.8-3.8zm-12.3 8.7c1.3 0 2.3 1 2.3 2.3s-1 2.3-2.3 2.3-2.3-1-2.3-2.3 1-2.3 2.3-2.3zm12.3-1.6c2.1 0 3.8 1.6 3.8 3.8s-1.6 3.8-3.8 3.8-3.8-1.6-3.8-3.8 1.6-3.8 3.8-3.8z" fill="#ffffff"/>
  </g>
  
  <!-- Teamwork Icon -->
  <g transform="translate(80, 40)">
    <circle cx="20" cy="20" r="19" fill="#27ae60" />
    <path d="M20 9.4c-1.8 0-3.1 1.3-3.1 3.1s1.3 3.1 3.1 3.1 3.1-1.3 3.1-3.1-1.3-3.1-3.1-3.1zm-7.5 1.9c-1.4 0-2.5 1.1-2.5 2.5s1.1 2.5 2.5 2.5 2.5-1.1 2.5-2.5-1.1-2.5-2.5-2.5zm15 0c-1.4 0-2.5 1.1-2.5 2.5s1.1 2.5 2.5 2.5 2.5-1.1 2.5-2.5-1.1-2.5-2.5-2.5zm-7.5 5c-2.6 0-7.5 1.3-7.5 3.8v2.5h15v-2.5c0-2.5-4.9-3.8-7.5-3.8zm-7.5 1.3c-3.4 0-6.3 1.6-6.3 3.8v2.5h3.8v-2.5c0-1.1.9-2.5 2.5-3.5-.5-.1-1-.3-1.5-.3h1.3zm16.3 0h-1.3c-.4 0-.8.1-1.3.3 1.6 1 2.5 2.3 2.5 3.5v2.5h3.8v-2.5c0-2.2-2.9-3.8-6.3-3.8h2.6z" fill="#ffffff"/>
  </g>
  
  <!-- Time Management Icon -->
  <g transform="translate(120, 40)">
    <circle cx="20" cy="20" r="19" fill="#f39c12" />
    <path d="M20 9.4c5.8 0 10.6 4.7 10.6 10.6S25.8 30.6 20 30.6 9.4 25.8 9.4 20 14.2 9.4 20 9.4zm0 2.5c-4.5 0-8.1 3.6-8.1 8.1s3.6 8.1 8.1 8.1 8.1-3.6 8.1-8.1-3.6-8.1-8.1-8.1zm-.6 2.5v7.5l5.6 3.3 1.3-2.1-4.4-2.6v-5h-2.5z" fill="#ffffff"/>
  </g>
  
  <!-- Adaptability Icon -->
  <g transform="translate(160, 40)">
    <circle cx="20" cy="20" r="19" fill="#1abc9c" />
    <path d="M20 9.4c-5.8 0-10.6 4.7-10.6 10.6S14.2 30.6 20 30.6s10.6-4.7 10.6-10.6S25.8 9.4 20 9.4zm-4.4 7.5l1.9 1.9-2.5 2.5 1.9 1.9 2.5-2.5 2.5 2.5 1.9-1.9-2.5-2.5 2.5-2.5-1.9-1.9-2.5 2.5-2.5-2.5-1.9 1.9z" fill="#ffffff"/>
  </g>
  
  <!-- Leadership Icon -->
  <g transform="translate(200, 40)">
    <circle cx="20" cy="20" r="19" fill="#e74c3c" />
    <path d="M20 9.4l3.8 7.5h7.5l-6.3 5 2.5 7.5-6.3-5-6.3 5 2.5-7.5-6.3-5h7.5L20 9.4z" fill="#ffffff"/>
  </g>
</svg>