<svg xmlns="http://www.w3.org/2000/svg" viewBox="0 0 120 40">
  <!-- Certificate Icon (0,0) -->
  <g>
    <path d="M12,2A10,10 0 0,1 22,12A10,10 0 0,1 12,22A10,10 0 0,1 2,12A10,10 0 0,1 12,2M12,4A8,8 0 0,0 4,12A8,8 0 0,0 12,20A8,8 0 0,0 20,12A8,8 0 0,0 12,4M11,8H13V14H11V8M11,16H13V18H11V16Z" fill="#3498db" transform="translate(0,0)"/>
  </g>
  
  <!-- Education Icon (40,0) -->
  <g>
    <path d="M12,3L1,9L12,15L21,10.09V17H23V9M5,13.18V17.18L12,21L19,17.18V13.18L12,17L5,13.18Z" fill="#2c3e50" transform="translate(40,0)"/>
  </g>
  
  <!-- Course Icon (80,0) -->
  <g>
    <path d="M9,7V9H13V11H9V13H13V15H9V17H13A2,2 0 0,0 15,15V13.5A1.5,1.5 0 0,0 13.5,12A1.5,1.5 0 0,0 15,10.5V9A2,2 0 0,0 13,7H9M12,2A10,10 0 0,1 22,12A10,10 0 0,1 12,22A10,10 0 0,1 2,12A10,10 0 0,1 12,2Z" fill="#27ae60" transform="translate(80,0)"/>
  </g>
</svg>
